<svg width="100" height="100" viewBox="0 0 100 100" fill="none" xmlns="http://www.w3.org/2000/svg">
    <defs>
        <linearGradient id="bgGrad" x1="0" y1="0" x2="100" y2="100">
            <stop offset="0%" stop-color="#2A2A35" />
            <stop offset="100%" stop-color="#121215" />
        </linearGradient>

        <linearGradient id="noteGrad" x1="0" y1="0" x2="0" y2="1">
            <stop offset="0%" stop-color="#9A94FF" />
            <stop offset="100%" stop-color="#6B63FF" />
        </linearGradient>

        <filter id="glow" x="-20%" y="-20%" width="140%" height="140%">
            <feGaussianBlur stdDeviation="2.5" result="blur" />
            <feComposite in="SourceGraphic" in2="blur" operator="over" />
        </filter>
    </defs>

    <rect width="100" height="100" rx="22" fill="url(#bgGrad)" />
    <rect x="1" y="1" width="98" height="98" rx="21" stroke="#FFFFFF" stroke-opacity="0.08"
        stroke-width="2" />

    <g filter="url(#glow)">
        <ellipse cx="36" cy="42" rx="7" ry="5" transform="rotate(-20 36 42)" fill="url(#noteGrad)" />
        <rect x="41" y="20" width="3" height="22" fill="url(#noteGrad)" />

        <ellipse cx="64" cy="38" rx="7" ry="5" transform="rotate(-20 64 38)" fill="url(#noteGrad)" />
        <rect x="69" y="16" width="3" height="22" fill="url(#noteGrad)" />

        <path d="M41 20 L72 16 L72 23 L41 27 Z" fill="url(#noteGrad)" />
    </g>

    <g transform="translate(13, 62)">
        <rect x="0" y="0" width="10" height="26" rx="2" fill="#F0F0F0" />
        <rect x="11" y="0" width="10" height="26" rx="2" fill="#F0F0F0" />
        <rect x="22" y="0" width="10" height="26" rx="2" fill="#F0F0F0" />
        <rect x="33" y="0" width="10" height="26" rx="2" fill="#F0F0F0" />
        <rect x="44" y="0" width="10" height="26" rx="2" fill="#F0F0F0" />
        <rect x="55" y="0" width="10" height="26" rx="2" fill="#F0F0F0" />
        <rect x="66" y="0" width="10" height="26" rx="2" fill="#F0F0F0" />

        <rect x="44" y="0" width="10" height="26" rx="2" fill="#6B63FF" fill-opacity="0.25" />
        <rect x="44" y="22" width="10" height="4" rx="2" fill="#6B63FF" />

        <rect x="7.5" y="0" width="6" height="15" rx="1.5" fill="#1A1A1A" />
        <rect x="18.5" y="0" width="6" height="15" rx="1.5" fill="#1A1A1A" />

        <rect x="40.5" y="0" width="6" height="15" rx="1.5" fill="#1A1A1A" />
        <rect x="51.5" y="0" width="6" height="15" rx="1.5" fill="#1A1A1A" />
        <rect x="62.5" y="0" width="6" height="15" rx="1.5" fill="#1A1A1A" />
    </g>
</svg>