<svg width="100" height="100" viewBox="0 0 100 100" fill="none" xmlns="http://www.w3.org/2000/svg">
    <rect width="100" height="100" rx="22" fill="#1A1A1A" />
    <rect x="0.5" y="0.5" width="99" height="99" rx="21.5" stroke="white" stroke-opacity="0.08" />

    <g transform="translate(0, 4)">
        <rect x="20" y="55" width="11" height="24" rx="2" fill="#FFFFFF" />
        <rect x="32" y="55" width="11" height="24" rx="2" fill="#FFFFFF" />
        <rect x="44" y="55" width="11" height="24" rx="2" fill="#FFFFFF" />
        <rect x="56" y="55" width="11" height="24" rx="2" fill="#FFFFFF" />
        <rect x="68" y="55" width="11" height="24" rx="2" fill="#FFFFFF" />

        <rect x="28" y="55" width="6" height="14" rx="1" fill="#6B63FF" />
        <rect x="40" y="55" width="6" height="14" rx="1" fill="#6B63FF" />
        <rect x="52" y="55" width="6" height="14" rx="1" fill="#6B63FF" />
        <rect x="64" y="55" width="6" height="14" rx="1" fill="#6B63FF" />
    </g>

    <g transform="translate(62, 18)">
        <path d="M0 2 L18 -4 V1 L0 7 Z" fill="#6B63FF" />
        <path d="M0 8 L18 2 V7 L0 13 Z" fill="#6B63FF" />

        <rect x="0" y="2" width="2.5" height="24" fill="#6B63FF" />
        <rect x="15.5" y="-4" width="2.5" height="24" fill="#6B63FF" />

        <ellipse cx="-1.5" cy="26" rx="5" ry="3.5" transform="rotate(-20, -1.5, 26)" fill="#6B63FF" />
        <ellipse cx="14" cy="20" rx="5" ry="3.5" transform="rotate(-20, 14, 20)" fill="#6B63FF" />
    </g>
</svg>